<?xml version="1.0" standalone="no"?><!DOCTYPE svg PUBLIC "-//W3C//DTD SVG 1.1//EN" "http://www.w3.org/Graphics/SVG/1.1/DTD/svg11.dtd"><svg class="icon" width="200px" height="200.00px" viewBox="0 0 1024 1024" version="1.1" xmlns="http://www.w3.org/2000/svg"><path fill="#cdcdcd" d="M513 226.1l346.8 388.5c3.7 4.1 10 4.5 14.1 0.8l46.6-41.6c4.1-3.7 4.5-10 0.8-14.1L520.4 110.5c-4-4.5-10.9-4.5-14.9 0l-240 269V244.7c0-5.5-4.5-10-10-10h-62.6c-5.5 0-10 4.5-10 10V472l-78.3 87.7c-3.7 4.1-3.3 10.4 0.8 14.1l46.6 41.6c4.1 3.7 10.4 3.3 14.1-0.8L513 226.1zM481.8 762.2h62.6c5.5 0 10 4.5 10 10v144.9c0 5.5-4.5 10-10 10h-62.6c-5.5 0-10-4.5-10-10V772.2c0-5.6 4.5-10 10-10zM907.4 887.3H843V684.9L519.4 316.3c-4-4.5-11.1-4.5-15.1 0L182.9 684.9v202.4h-64.5c-10.8 0-20.1 8.4-20.5 19.3-0.4 11.4 8.7 20.7 20 20.7h271.3V679.6h247.5v207.7h-0.2v40h271.4c11.3 0 20.4-9.4 20-20.7-0.4-10.9-9.7-19.3-20.5-19.3z" /></svg>