<?xml version="1.0" standalone="no"?><!DOCTYPE svg PUBLIC "-//W3C//DTD SVG 1.1//EN" "http://www.w3.org/Graphics/SVG/1.1/DTD/svg11.dtd"><svg class="icon" width="200px" height="200.00px" viewBox="0 0 1024 1024" version="1.1" xmlns="http://www.w3.org/2000/svg"><path fill="#cdcdcd" d="M908 561.6c-4 0-8-1.6-11.2-4.8L467.2 127.2c-3.2-3.2-4.8-7.2-4.8-11.2s1.6-8 4.8-11.2l78.4-78.4c6.4-6.4 16-6.4 22.4 0L997.6 456c6.4 6.4 6.4 16 0 22.4l-78.4 78.4c-2.4 3.2-7.2 4.8-11.2 4.8zM500.8 116l407.2 407.2 55.2-55.2L556 60.8l-55.2 55.2zM926.4 423.2c-4 0-8-1.6-11.2-4.8L604.8 109.6c-3.2-3.2-4.8-7.2-4.8-11.2s1.6-8 4.8-11.2l78.4-78.4c6.4-6.4 16-6.4 22.4 0l309.6 309.6c6.4 6.4 6.4 16 0 22.4l-78.4 78.4c-2.4 2.4-6.4 4-10.4 4zM639.2 98.4l287.2 287.2 55.2-55.2-287.2-288-55.2 56zM468 1002.4c-4 0-8-1.6-11.2-4.8L26.4 568c-6.4-6.4-6.4-16 0-22.4l78.4-78.4c6.4-6.4 16.8-6.4 22.4 0l429.6 429.6c6.4 6.4 6.4 16 0 22.4l-78.4 78.4c-2.4 3.2-6.4 4.8-10.4 4.8zM60.8 556l407.2 407.2 55.2-55.2-407.2-407.2-55.2 55.2zM329.6 1020c-4 0-8-1.6-11.2-4.8L8.8 705.6c-3.2-3.2-4.8-7.2-4.8-11.2s1.6-8 4.8-11.2l78.4-78.4c6.4-6.4 16-6.4 22.4 0l309.6 309.6c6.4 6.4 6.4 16 0 22.4l-78.4 78.4c-3.2 3.2-7.2 4.8-11.2 4.8zM42.4 694.4l287.2 287.2 55.2-55.2-286.4-287.2-56 55.2zM404 782.4c-4 0-8-1.6-11.2-4.8L245.6 631.2c-6.4-6.4-6.4-16 0-22.4L608 246.4c6.4-6.4 16.8-6.4 22.4 0l147.2 147.2c6.4 6.4 6.4 16 0 22.4L415.2 778.4c-2.4 2.4-6.4 4-11.2 4zM280 620L404 744 744 404 620 280 280 620zM922.4 264c-4 0-8-1.6-11.2-4.8L764.8 112.8c-3.2-3.2-4.8-7.2-4.8-11.2s1.6-8 4.8-11.2l73.6-73.6c6.4-6.4 16-6.4 22.4 0L1008 164c3.2 3.2 4.8 7.2 4.8 11.2s-1.6 8-4.8 11.2l-73.6 73.6c-3.2 2.4-7.2 4-12 4zM798.4 101.6l124 124 50.4-50.4-124-124.8-50.4 51.2zM175.2 1012c-4 0-8-1.6-11.2-4.8L16.8 860c-6.4-6.4-6.4-16 0-22.4l73.6-73.6c6.4-6.4 16.8-6.4 22.4 0l147.2 147.2c6.4 6.4 6.4 16 0 22.4l-73.6 73.6c-3.2 3.2-7.2 4.8-11.2 4.8zM50.4 848.8l124 124 50.4-50.4-123.2-124-51.2 50.4z" /></svg>