<?xml version="1.0" standalone="no"?><!DOCTYPE svg PUBLIC "-//W3C//DTD SVG 1.1//EN" "http://www.w3.org/Graphics/SVG/1.1/DTD/svg11.dtd"><svg class="icon" width="200px" height="200.00px" viewBox="0 0 1024 1024" version="1.1" xmlns="http://www.w3.org/2000/svg"><path fill="#cdcdcd" d="M748.8 12.8H147.2s-70.4-6.4-64 64v204.8c0 38.4 25.6 64 64 64h601.6c38.4 0 64-25.6 64-64V198.4h89.6v211.2l-448 115.2s-12.8 0-12.8 19.2V640h-12.8c-38.4 0-64 25.6-64 64v236.8c0 38.4 25.6 64 64 64h57.6c38.4 0 64-25.6 64-64V704c0-38.4-25.6-64-64-64h-6.4V563.2l448-115.2s19.2-6.4 19.2-19.2V179.2c0-19.2-12.8-19.2-25.6-19.2h-108.8V76.8s12.8-70.4-64-64z m-320 953.6v25.6l70.4-25.6H428.8z"  /></svg>