<?xml version="1.0" standalone="no"?><!DOCTYPE svg PUBLIC "-//W3C//DTD SVG 1.1//EN" "http://www.w3.org/Graphics/SVG/1.1/DTD/svg11.dtd"><svg class="icon" width="200px" height="200.00px" viewBox="0 0 1024 1024" version="1.1" xmlns="http://www.w3.org/2000/svg"><path fill="#cdcdcd" d="M686.287465 469.186915 686.287465 469.186915l0-42.97886 0 0c44.083008 0 79.818907-35.734876 79.818907-79.818907 0-44.081984-35.734876-79.81686-79.818907-79.81686-29.051663 0-54.230112 15.680121-68.192102 38.884612l-47.085388 0c16.916275-47.585785 61.888536-81.863473 115.27749-81.863473 67.819618 0 122.796744 54.977126 122.796744 122.796744S754.107083 469.186915 686.287465 469.186915zM236.033761 346.389148l491.185952 0L522.55745 591.983659l0 163.728992 122.79879 0 0 40.932248L317.897234 796.644899l0-40.932248 122.796744 0 0-163.728992L236.033761 346.389148z" /></svg>